<?xml version="1.0" encoding="UTF-8"?>
<svg version="1.1" xmlns="http://www.w3.org/2000/svg" width="500" height="500">
<path d="M0 0 C165 0 330 0 500 0 C500 165 500 330 500 500 C335 500 170 500 0 500 C0 335 0 170 0 0 Z " fill="#FEFEFE" transform="translate(0,0)"/>
<path d="M0 0 C75.24 0 150.48 0 228 0 C228 1.98 228 3.96 228 6 C152.76 6 77.52 6 0 6 C0 4.02 0 2.04 0 0 Z " fill="#FAC041" transform="translate(230,289)"/>
<path d="M0 0 C2.75026417 -0.05404449 5.49946203 -0.09369306 8.25 -0.125 C9.02730469 -0.14175781 9.80460937 -0.15851563 10.60546875 -0.17578125 C17.72431144 -0.23662606 17.72431144 -0.23662606 21 2 C21.125 8.625 21.125 8.625 20 12 C12.125 11.125 12.125 11.125 11 10 C8.67182036 9.63239269 6.3381615 9.29758419 4 9 C4 9.66 4 10.32 4 11 C3.39671875 11.14695313 2.7934375 11.29390625 2.171875 11.4453125 C-2.22511537 12.67930657 -4.50148619 13.40178342 -7.5 17 C-10.71675048 23.43350096 -10.71770401 29.59090593 -9.25 36.5625 C-8.26161966 39.05725596 -8.26161966 39.05725596 -6.375 39.875 C-2.90800537 40.0574734 0.52785608 40.05786907 4 40 C4.33 37.36 4.66 34.72 5 32 C5.66 32 6.32 32 7 32 C6.979375 30.88625 6.95875 29.7725 6.9375 28.625 C7 25 7 25 8 23 C11.63 23 15.26 23 19 23 C17.29493907 40.33478609 17.29493907 40.33478609 14 48 C13.34 48 12.68 48 12 48 C12 48.66 12 49.32 12 50 C2.59677461 51.70967734 -6.20553192 52.05898527 -15 48 C-15 47.34 -15 46.68 -15 46 C-15.99 45.67 -16.98 45.34 -18 45 C-18 44.01 -18 43.02 -18 42 C-18.66 42 -19.32 42 -20 42 C-20 41.01 -20 40.02 -20 39 C-20.66 39 -21.32 39 -22 39 C-22.05425013 36.12474331 -22.09379277 33.25052354 -22.125 30.375 C-22.14175781 29.56675781 -22.15851563 28.75851563 -22.17578125 27.92578125 C-22.21420986 23.19906185 -21.82737094 19.44612298 -20 15 C-19.34 15 -18.68 15 -18 15 C-17.7525 14.0925 -17.505 13.185 -17.25 12.25 C-15.90642422 8.75670296 -15.00867477 7.19551943 -12 5 C-8.25 4.25 -8.25 4.25 -5 4 C-5 3.34 -5 2.68 -5 2 C-3.35 2 -1.7 2 0 2 C0 1.34 0 0.68 0 0 Z " fill="#F9BD36" transform="translate(257,225)"/>
<path d="M0 0 C2.82682703 1.04146259 3.72429193 1.72770234 5.29296875 4.26171875 C7.28672341 11.98338734 7.11715139 21.31524582 5 29 C4.01 29 3.02 29 2 29 C1.92265625 29.60328125 1.8453125 30.2065625 1.765625 30.828125 C0.72816216 33.77113182 -0.51014976 34.31820729 -3.25 35.75 C-9.39459065 38.59684632 -15.33555945 39.12740877 -22 38 C-25.125 35.875 -25.125 35.875 -27 33 C-27.598125 32.113125 -28.19625 31.22625 -28.8125 30.3125 C-31.52944354 22.7336575 -30.19040538 16.17841209 -27 9 C-26.34 9 -25.68 9 -25 9 C-24.67 7.68 -24.34 6.36 -24 5 C-23.34 5 -22.68 5 -22 5 C-22 4.34 -22 3.68 -22 3 C-21.34 3 -20.68 3 -20 3 C-20 2.34 -20 1.68 -20 1 C-14.5816699 -1.70916505 -5.94053821 -0.79034737 0 0 Z " fill="#141414" transform="translate(112,237)"/>
<path d="M0 0 C0.98275588 2.94826763 1.13414725 4.92652504 1.125 8 C1.12886719 9.299375 1.12886719 9.299375 1.1328125 10.625 C1 13 1 13 0 16 C-0.66 16 -1.32 16 -2 16 C-2 16.66 -2 17.32 -2 18 C-8.37848752 21.73081346 -13.64576595 22.72962375 -21 23 C-19.13022903 25.44710376 -18.17497517 25.96931493 -15.08203125 26.51171875 C-13.46361328 26.59873047 -13.46361328 26.59873047 -11.8125 26.6875 C-10.72582031 26.75324219 -9.63914062 26.81898438 -8.51953125 26.88671875 C-7.27236328 26.94279297 -7.27236328 26.94279297 -6 27 C-6 29.97 -6 32.94 -6 36 C-9.54745085 36.80331767 -12.8638255 37.16196507 -16.5 37.1875 C-17.4178125 37.20167969 -18.335625 37.21585937 -19.28125 37.23046875 C-23.7260441 36.85368304 -26.28029109 35.77806368 -29.3125 32.5 C-31 30 -31 30 -31 28 C-31.66 28 -32.32 28 -33 28 C-33.10883596 25.62374823 -33.18766696 23.25256024 -33.25 20.875 C-33.28351563 20.20984375 -33.31703125 19.5446875 -33.3515625 18.859375 C-33.45295312 13.68845362 -32.1351734 11.02347253 -29 7 C-28.34 5.948125 -27.68 4.89625 -27 3.8125 C-24.2618388 -0.03803918 -22.55498576 -1.61918716 -17.9375 -2.75 C-11.74483007 -3.14318539 -5.27677715 -3.51785143 0 0 Z " fill="#F9BE3B" transform="translate(316,239)"/>
<path d="M0 0 C3.63 0 7.26 0 11 0 C10.67 4.95 10.34 9.9 10 15 C9.34 15 8.68 15 8 15 C8 18.96 8 22.92 8 27 C10.31 27 12.62 27 15 27 C15.33 23.37 15.66 19.74 16 16 C16.66 16 17.32 16 18 16 C18 14.02 18 12.04 18 10 C18.66 10 19.32 10 20 10 C19.95875 8.906875 19.9175 7.81375 19.875 6.6875 C20 3 20 3 22 0 C24.3828125 -0.29296875 24.3828125 -0.29296875 27.125 -0.1875 C28.03507812 -0.16042969 28.94515625 -0.13335937 29.8828125 -0.10546875 C30.58148438 -0.07066406 31.28015625 -0.03585938 32 0 C31.88521587 2.06309376 31.75773802 4.12548354 31.625 6.1875 C31.55539062 7.33605469 31.48578125 8.48460937 31.4140625 9.66796875 C31.02490426 12.79959117 30.3190149 15.15285809 29 18 C28.34 18 27.68 18 27 18 C27 24.27 27 30.54 27 37 C24.00520833 36.93489583 21.01041667 36.86979167 18.015625 36.8046875 C14.99477099 37.00033867 13.60153657 37.59420073 11 39 C7.92640592 39.52234604 5.07146334 39.55198896 2 39 C-1.0625 36.625 -1.0625 36.625 -3 34 C-3 33.34 -3 32.68 -3 32 C-3.66 32 -4.32 32 -5 32 C-5.46262752 20.57138674 -4.26070291 10.65175728 0 0 Z " fill="#F9BE39" transform="translate(388,237)"/>
<path d="M0 0 C2.77328638 2.86572926 3.26779283 5.64413884 3.5 9.5 C3.29431772 18.81997812 0.3320343 28.02999664 -2 37 C-5.63 37 -9.26 37 -13 37 C-13 34.36 -13 31.72 -13 29 C-12.34 29 -11.68 29 -11 29 C-11.04125 28.13375 -11.0825 27.2675 -11.125 26.375 C-11 23 -11 23 -10 20.125 C-8.74724182 16.21013068 -8.85876695 13.09575842 -9 9 C-11.31 8.67 -13.62 8.34 -16 8 C-16.1340625 8.84820312 -16.268125 9.69640625 -16.40625 10.5703125 C-17.00576118 14.03327839 -17.7360396 17.44481781 -18.5 20.875 C-19.37204003 24.85605231 -20.15913218 28.75681994 -20.5625 32.8125 C-20.706875 33.864375 -20.85125 34.91625 -21 36 C-23.64458379 37.32229189 -25.67761301 37.09677194 -28.625 37.0625 C-29.62789063 37.05347656 -30.63078125 37.04445313 -31.6640625 37.03515625 C-32.43492187 37.02355469 -33.20578125 37.01195312 -34 37 C-34.11214278 32.61895553 -33.23445745 29.21167835 -32 25 C-31.855625 23.865625 -31.71125 22.73125 -31.5625 21.5625 C-31.0147694 18.09353956 -30.05842017 15.35162381 -28.75390625 12.125 C-27.6836693 9.10837358 -27.15209044 6.0343741 -26.625 2.8828125 C-26 1 -26 1 -23 -1 C-15.7461266 -2.48038233 -6.78415804 -3.47481265 0 0 Z " fill="#F9BC33" transform="translate(353,238)"/>
<path d="M0 0 C3.27555318 3.12320187 4.19974075 5.65598171 4.375 10.0625 C3.9507401 14.51722898 3.51429745 17.42746034 0.375 20.6875 C-5.53686272 23.95458203 -11.41845955 24.23505502 -18 24 C-17.67 25.32 -17.34 26.64 -17 28 C-12.05 28.33 -7.1 28.66 -2 29 C-1.90234375 35.15234375 -1.90234375 35.15234375 -2 37 C-4.08729489 39.08729489 -8.32480875 38.2768056 -11.1875 38.3125 C-12.32155273 38.35600586 -12.32155273 38.35600586 -13.47851562 38.40039062 C-18.79254705 38.46030598 -21.84957216 37.60933503 -26 34 C-30.28225474 28.57039008 -29.60148085 22.59958158 -29 16 C-27.875 12.6875 -27.875 12.6875 -26 10 C-25.52820313 9.32066406 -25.05640625 8.64132813 -24.5703125 7.94140625 C-19.34099234 0.64377289 -19.34099234 0.64377289 -14.5 -0.6875 C-9.54982328 -1.12948006 -4.84939229 -1.21045673 0 0 Z " fill="#181818" transform="translate(193,237)"/>
<path d="M0 0 C0.68916504 -0.00547852 1.37833008 -0.01095703 2.08837891 -0.01660156 C6.08874813 0.03956436 9.21084147 0.55712856 12.8125 2.3125 C12.4825 4.6225 12.1525 6.9325 11.8125 9.3125 C8.0283381 9.3125 4.33503876 9.09194732 0.5625 8.8125 C-1.33242187 8.67328125 -1.33242187 8.67328125 -3.265625 8.53125 C-4.22984375 8.4590625 -5.1940625 8.386875 -6.1875 8.3125 C-6.1875 8.9725 -6.1875 9.6325 -6.1875 10.3125 C-7.85029327 11.3189275 -9.51733484 12.31835407 -11.1875 13.3125 C-12.1775 14.7975 -12.1775 14.7975 -13.1875 16.3125 C-13.8475 16.3125 -14.5075 16.3125 -15.1875 16.3125 C-15.1875 17.3025 -15.1875 18.2925 -15.1875 19.3125 C-15.8475 19.3125 -16.5075 19.3125 -17.1875 19.3125 C-18.04561306 30.17166822 -18.04561306 30.17166822 -13.1875 39.3125 C-13.1875 39.9725 -13.1875 40.6325 -13.1875 41.3125 C-4.14514945 40.66158323 -4.14514945 40.66158323 4.8125 39.3125 C4.83938151 40.95824566 4.85884123 42.60411413 4.875 44.25 C4.88660156 45.16652344 4.89820313 46.08304687 4.91015625 47.02734375 C4.8125 49.3125 4.8125 49.3125 3.8125 50.3125 C0.83527811 50.85079235 -2.17364437 51.07027358 -5.1875 51.3125 C-5.92871094 51.37953125 -6.66992188 51.4465625 -7.43359375 51.515625 C-13.70961871 51.82886689 -18.54958452 49.94901997 -24.1875 47.3125 C-24.1875 46.3225 -24.1875 45.3325 -24.1875 44.3125 C-25.1775 43.9825 -26.1675 43.6525 -27.1875 43.3125 C-28.73675737 33.24232712 -29.28398078 23.82084529 -25.1875 14.3125 C-24.4759375 12.58 -24.4759375 12.58 -23.75 10.8125 C-22.1875 8.3125 -22.1875 8.3125 -20.125 7.6875 C-19.485625 7.56375 -18.84625 7.44 -18.1875 7.3125 C-17.81625 6.384375 -17.81625 6.384375 -17.4375 5.4375 C-15.81263164 2.67522378 -13.92721885 1.85392458 -10.94140625 0.84765625 C-7.29572418 0.13920456 -3.70108942 0.02184525 0 0 Z " fill="#0F0F0F" transform="translate(68.1875,224.6875)"/>
<path d="M0 0 C3.96 0 7.92 0 12 0 C12.06058594 1.34835938 12.12117187 2.69671875 12.18359375 4.0859375 C12.26799422 5.8489696 12.35264247 7.61198984 12.4375 9.375 C12.47681641 10.26445312 12.51613281 11.15390625 12.55664062 12.0703125 C12.61948242 13.34648437 12.61948242 13.34648437 12.68359375 14.6484375 C12.72025146 15.43395996 12.75690918 16.21948242 12.79467773 17.02880859 C12.890891 19.07523496 12.890891 19.07523496 14 21 C14.33773437 20.36191406 14.67546875 19.72382813 15.0234375 19.06640625 C15.46945313 18.24011719 15.91546875 17.41382813 16.375 16.5625 C16.81585938 15.73878906 17.25671875 14.91507813 17.7109375 14.06640625 C19 12 19 12 21 11 C21.93393441 9.344389 22.80102783 7.65049478 23.625 5.9375 C24.07101563 5.01839844 24.51703125 4.09929687 24.9765625 3.15234375 C25.31429687 2.44207031 25.65203125 1.73179687 26 1 C29.3 1 32.6 1 36 1 C35.34 2.98 34.68 4.96 34 7 C33.34 7 32.68 7 32 7 C31.896875 7.9075 31.79375 8.815 31.6875 9.75 C30.96694158 13.15627616 30.04604448 14.29922128 28 17 C27.26739841 19.31347872 26.588562 21.645752 26 24 C25.34 24 24.68 24 24 24 C23.773125 24.680625 23.54625 25.36125 23.3125 26.0625 C21.68773854 29.6988709 19.67196743 33.02829263 17 36 C16.34 36 15.68 36 15 36 C15 36.66 15 37.32 15 38 C11.37 38 7.74 38 4 38 C3.77213542 35.94921875 3.54427083 33.8984375 3.31640625 31.84765625 C3.18113386 29.98859771 3.18113386 29.98859771 2 29 C1.66666667 26.66666667 1.33333333 24.33333333 1 22 C0.67 21.67 0.34 21.34 0 21 C-0.08685603 19.43827255 -0.10702219 17.87270656 -0.09765625 16.30859375 C-0.09443359 15.36435547 -0.09121094 14.42011719 -0.08789062 13.44726562 C-0.07951172 12.45404297 -0.07113281 11.46082031 -0.0625 10.4375 C-0.05798828 9.44041016 -0.05347656 8.44332031 -0.04882812 7.41601562 C-0.03700023 4.94398513 -0.01906415 2.47198528 0 0 Z " fill="#0D0D0D" transform="translate(126,237)"/>
<path d="M0 0 C0.89292497 2.9222999 1.31662832 4.37578988 -0.09375 7.15625 C-2 9 -2 9 -4.91796875 9.390625 C-5.99691406 9.34421875 -7.07585937 9.2978125 -8.1875 9.25 C-9.27417969 9.21390625 -10.36085938 9.1778125 -11.48046875 9.140625 C-12.31191406 9.09421875 -13.14335937 9.0478125 -14 9 C-13.73125295 10.95236766 -13.73125295 10.95236766 -13 13 C-10.01647106 14.78379415 -10.01647106 14.78379415 -7 16 C-7 16.66 -7 17.32 -7 18 C-6.360625 18.28875 -5.72125 18.5775 -5.0625 18.875 C-3 20 -3 20 -2 22 C-1.56836248 30.77662957 -1.56836248 30.77662957 -4 35 C-5.485 35.495 -5.485 35.495 -7 36 C-7 36.66 -7 37.32 -7 38 C-15.13577388 39.20529983 -23.22945667 40.27180772 -31 37 C-31.625 34.6875 -31.625 34.6875 -32 32 C-31.34 31.01 -30.68 30.02 -30 29 C-28.12060547 28.65942383 -28.12060547 28.65942383 -25.8671875 28.70703125 C-25.06152344 28.71669922 -24.25585938 28.72636719 -23.42578125 28.73632812 C-22.58402344 28.76146484 -21.74226563 28.78660156 -20.875 28.8125 C-19.60076172 28.83280273 -19.60076172 28.83280273 -18.30078125 28.85351562 C-16.20025163 28.88891781 -14.10004707 28.94272599 -12 29 C-13.03013561 26.23151055 -13.69989206 25.1698246 -16.3125 23.69140625 C-18.1032382 22.93919209 -19.89490665 22.18918865 -21.6875 21.44140625 C-24.59585901 19.62859464 -25.10979823 18.26241543 -26 15 C-26.20306763 11.14171502 -26.18265922 7.69581007 -25 4 C-24.34 4 -23.68 4 -23 4 C-22.67 3.01 -22.34 2.02 -22 1 C-14.80230209 -1.84908876 -7.51057544 -1.54063086 0 0 Z " fill="#F9C040" transform="translate(454,237)"/>
<path d="M0 0 C0.99 0.66 1.98 1.32 3 2 C2.67 4.97 2.34 7.94 2 11 C-1.96 11 -5.92 11 -10 11 C-10.33 12.32 -10.66 13.64 -11 15 C-11.63102167 16.73462668 -12.27821824 18.46341601 -12.9375 20.1875 C-14.50426039 24.43364773 -15.71843416 28.59217082 -16.60546875 33.02734375 C-17.00641496 35.0320748 -17.50415227 37.01660909 -18 39 C-21.3 39 -24.6 39 -28 39 C-27.63397608 34.38809857 -27.20944662 30.23015433 -25.625 25.875 C-23.66961946 20.46894791 -22.70671951 14.89060386 -21.6484375 9.2578125 C-21 6 -21 6 -20 3 C-13.92655864 0.01849242 -6.67829941 -0.94353955 0 0 Z " fill="#050505" transform="translate(228,236)"/>
<path d="M0 0 C3.63 0 7.26 0 11 0 C10.38736151 6.69137374 9.212454 13.03787509 7.625 19.5625 C7.41617187 20.45646484 7.20734375 21.35042969 6.9921875 22.27148438 C5.68988256 27.69907844 4.06895742 32.81550728 2 38 C-1.63 38 -5.26 38 -9 38 C-8.67 34.37 -8.34 30.74 -8 27 C-7.34 27 -6.68 27 -6 27 C-6.061875 25.4840625 -6.061875 25.4840625 -6.125 23.9375 C-5.99426157 19.81923948 -5.26749214 16.88169467 -4 13 C-3.34 13 -2.68 13 -2 13 C-2.061875 11.453125 -2.061875 11.453125 -2.125 9.875 C-2.00424851 6.13170373 -1.35127982 3.46265453 0 0 Z " fill="#F9BD36" transform="translate(369,237)"/>
<path d="M0 0 C0.05418326 2.08304538 0.09287551 4.16649768 0.125 6.25 C0.14820312 7.41015625 0.17140625 8.5703125 0.1953125 9.765625 C0.0103949 12.82786046 -0.39176977 14.44202751 -2 17 C-2.66 17 -3.32 17 -4 17 C-4 17.99 -4 18.98 -4 20 C-6.64 20 -9.28 20 -12 20 C-14.50169051 16.24746423 -14.51793104 12.34576513 -14 8 C-13.07970166 4.31161679 -11.98484504 1.6388184 -8.6875 -0.5 C-5.53315309 -1.08685524 -3.13223332 -0.58756377 0 0 Z " fill="#F0F0F0" transform="translate(107,246)"/>
<path d="M0 0 C1.22159091 6.35227273 1.22159091 6.35227273 0.1875 9.375 C-1 11 -1 11 -3 12 C-6.07155269 12.26140874 -8.199384 12.43904748 -10.9375 10.9375 C-12.68741799 7.74647308 -11.91362414 5.41086347 -11 2 C-7.78017735 -1.96285864 -4.66163539 -0.98611518 0 0 Z " fill="#FAC246" transform="translate(383,219)"/>
<path d="M0 0 C3.96 0 7.92 0 12 0 C12.06058594 1.34835938 12.12117187 2.69671875 12.18359375 4.0859375 C12.26799422 5.8489696 12.35264247 7.61198984 12.4375 9.375 C12.47681641 10.26445312 12.51613281 11.15390625 12.55664062 12.0703125 C12.61948242 13.34648437 12.61948242 13.34648437 12.68359375 14.6484375 C12.72025146 15.43395996 12.75690918 16.21948242 12.79467773 17.02880859 C12.890891 19.07523496 12.890891 19.07523496 14 21 C15.65 18.03 17.3 15.06 19 12 C19.33 12.66 19.66 13.32 20 14 C19.14453125 16.34765625 19.14453125 16.34765625 17.8125 19.0625 C17.38582031 19.96097656 16.95914063 20.85945313 16.51953125 21.78515625 C15 24 15 24 11 25 C10.67 17.08 10.34 9.16 10 1 C7.03 1 4.06 1 1 1 C1.46540697 8.5934822 2.21600956 15.97396608 3.6953125 23.44140625 C3.99742241 25.97835482 3.80246293 27.59826236 3 30 C1.06729418 28.06729418 1.37336945 24.61358612 1 22 C0.67 21.67 0.34 21.34 0 21 C-0.08685603 19.43827255 -0.10702219 17.87270656 -0.09765625 16.30859375 C-0.09443359 15.36435547 -0.09121094 14.42011719 -0.08789062 13.44726562 C-0.07951172 12.45404297 -0.07113281 11.46082031 -0.0625 10.4375 C-0.05798828 9.44041016 -0.05347656 8.44332031 -0.04882812 7.41601562 C-0.03700023 4.94398513 -0.01906415 2.47198528 0 0 Z " fill="#7E7E7E" transform="translate(126,237)"/>
<path d="M0 0 C1.57776439 3.15552878 0.66118308 5.58388742 0 9 C-0.47588247 10.30074542 -0.97676789 11.59256835 -1.5 12.875 C-2.74110778 15.92135545 -3.21953946 18.53245969 -3.4375 21.8125 C-3.78324861 25.744543 -3.78324861 25.744543 -5.75 28.0625 C-8.33448192 29.13936747 -10.22594049 29.23117163 -13 29 C-13 28.34 -13 27.68 -13 27 C-13.99 26.67 -14.98 26.34 -16 26 C-16.366882 17.37827306 -14.18191045 9.95477612 -11 2 C-9.73973202 4.52053595 -10.08125555 5.8542098 -10.4375 8.625 C-10.53933594 9.44226563 -10.64117187 10.25953125 -10.74609375 11.1015625 C-10.82988281 11.72804687 -10.91367187 12.35453125 -11 13 C-11.66 13 -12.32 13 -13 13 C-13 16.96 -13 20.92 -13 25 C-10.69 25 -8.38 25 -6 25 C-5.67 21.37 -5.34 17.74 -5 14 C-4.34 14 -3.68 14 -3 14 C-3 12.02 -3 10.04 -3 8 C-2.34 8 -1.68 8 -1 8 C-1.020625 6.865625 -1.04125 5.73125 -1.0625 4.5625 C-1 1 -1 1 0 0 Z " fill="#FCDE99" transform="translate(409,239)"/>
<path d="M0 0 C0.5625 1.9375 0.5625 1.9375 1 4 C0 5 0 5 -3 5.125 C-6 5 -6 5 -7 4 C-11.107346 3.80896065 -15.02342633 3.91547991 -19 5 C-20.25827123 6.84982472 -20.25827123 6.84982472 -21 9 C-22.5 10.75 -22.5 10.75 -24 12 C-24.66 12 -25.32 12 -26 12 C-26 13.32 -26 14.64 -26 16 C-26.66 16 -27.32 16 -28 16 C-28 20.29 -28 24.58 -28 29 C-30 27 -30 27 -30.23046875 24.7578125 C-30.21628906 23.88898438 -30.20210937 23.02015625 -30.1875 22.125 C-30.18105469 21.26132813 -30.17460938 20.39765625 -30.16796875 19.5078125 C-30.01393667 17.20807774 -29.64161776 15.20716511 -29 13 C-28.34 13 -27.68 13 -27 13 C-27 12.01 -27 11.02 -27 10 C-26.34 10 -25.68 10 -25 10 C-24.71125 9.38125 -24.4225 8.7625 -24.125 8.125 C-23 6 -23 6 -21 4 C-20.01 4 -19.02 4 -18 4 C-18 3.34 -18 2.68 -18 2 C-15.72923158 1.97300275 -13.45837179 1.95360547 -11.1875 1.9375 C-9.29064453 1.92009766 -9.29064453 1.92009766 -7.35546875 1.90234375 C-4 2 -4 2 -1 3 C-0.67 2.01 -0.34 1.02 0 0 Z " fill="#A0A0A0" transform="translate(80,231)"/>
<path d="M0 0 C1 1 1 1 1.1875 3.375 C1 6 1 6 -1 9 C-3.6015625 9.29296875 -3.6015625 9.29296875 -6.625 9.1875 C-8.12933594 9.14689453 -8.12933594 9.14689453 -9.6640625 9.10546875 C-10.43492187 9.07066406 -11.20578125 9.03585938 -12 9 C-11.67 7.02 -11.34 5.04 -11 3 C-10.01 3 -9.02 3 -8 3 C-8 2.34 -8 1.68 -8 1 C-5.26752652 -0.36623674 -3.01801098 -0.128426 0 0 Z " fill="#FDEFCE" transform="translate(306,245)"/>
<path d="M0 0 C0 1.98 0 3.96 0 6 C-2.64458379 7.32229189 -4.67761301 7.09677194 -7.625 7.0625 C-8.62789062 7.05347656 -9.63078125 7.04445312 -10.6640625 7.03515625 C-11.43492187 7.02355469 -12.20578125 7.01195312 -13 7 C-11.66714184 1.42622951 -11.66714184 1.42622951 -8.75 -0.4375 C-5.53872356 -1.094352 -3.17321645 -0.73795731 0 0 Z " fill="#D4D4D4" transform="translate(188,246)"/>
<path d="M0 0 C-0.33 2.97 -0.66 5.94 -1 9 C-4.96 9 -8.92 9 -13 9 C-13.33 10.32 -13.66 11.64 -14 13 C-14.33 12.34 -14.66 11.68 -15 11 C-14.34 9.68 -13.68 8.36 -13 7 C-9.7 7 -6.4 7 -3 7 C-2.67 4.69 -2.34 2.38 -2 0 C-11.405 0.495 -11.405 0.495 -21 1 C-15.19813009 -2.86791327 -5.91749465 -3.94499643 0 0 Z " fill="#7B7B7B" transform="translate(231,238)"/>
<path d="M0 0 C0.98275588 2.94826763 1.13414725 4.92652504 1.125 8 C1.12886719 9.299375 1.12886719 9.299375 1.1328125 10.625 C1 13 1 13 0 16 C-0.66 15.67 -1.32 15.34 -2 15 C-1.67 10.71 -1.34 6.42 -1 2 C-2.32 1.67 -3.64 1.34 -5 1 C-5 0.34 -5 -0.32 -5 -1 C-15.17160927 -0.44589633 -15.17160927 -0.44589633 -25 2 C-22.78084386 -0.75175362 -21.391663 -1.89608941 -17.9375 -2.8125 C-5.13333333 -3.42222222 -5.13333333 -3.42222222 0 0 Z " fill="#FBD377" transform="translate(316,239)"/>
<path d="M0 0 C1.66260786 4.0828598 0.25931026 7.70855021 -0.875 11.75 C-2.04398815 15.9906053 -3.06382473 20.06801235 -3.5078125 24.453125 C-3.67023438 25.62359375 -3.83265625 26.7940625 -4 28 C-6.64458379 29.32229189 -8.67761301 29.09677194 -11.625 29.0625 C-12.62789063 29.05347656 -13.63078125 29.04445313 -14.6640625 29.03515625 C-15.43492187 29.02355469 -16.20578125 29.01195312 -17 29 C-17 27.35 -17 25.7 -17 24 C-16.34 23.67 -15.68 23.34 -15 23 C-15.33 24.65 -15.66 26.3 -16 28 C-13.03 28 -10.06 28 -7 28 C-7 26.35 -7 24.7 -7 23 C-6.34 23 -5.68 23 -5 23 C-4.97421875 22.26136719 -4.9484375 21.52273438 -4.921875 20.76171875 C-4.49976252 13.21166148 -2.94335212 6.95452502 0 0 Z " fill="#FBD47B" transform="translate(336,246)"/>
<path d="M0 0 C1.61323505 4.03308763 0.20687236 6.97709214 -1 11 C-1.4292212 13.6639707 -1.71734314 16.31475987 -2 19 C-2.66 19 -3.32 19 -4 19 C-3.979375 19.804375 -3.95875 20.60875 -3.9375 21.4375 C-4 24 -4 24 -5 25 C-5.23075082 26.34747084 -5.41153063 27.70377565 -5.5625 29.0625 C-5.706875 30.361875 -5.85125 31.66125 -6 33 C-3.36 33 -0.72 33 2 33 C2 32.01 2 31.02 2 30 C2.66 30 3.32 30 4 30 C3.67 31.32 3.34 32.64 3 34 C-0.63 34 -4.26 34 -8 34 C-7.67 30.37 -7.34 26.74 -7 23 C-6.34 23 -5.68 23 -5 23 C-5.061875 21.4840625 -5.061875 21.4840625 -5.125 19.9375 C-4.99426157 15.81923948 -4.26749214 12.88169467 -3 9 C-2.34 9 -1.68 9 -1 9 C-1.020625 7.88625 -1.04125 6.7725 -1.0625 5.625 C-1 2 -1 2 0 0 Z " fill="#FCD784" transform="translate(368,241)"/>
<path d="M0 0 C2.97 0 5.94 0 9 0 C9.09507063 6.43311296 9.15316726 12.65758005 8 19 C7.34 19 6.68 19 6 19 C6 21.31 6 23.62 6 26 C5.34 26 4.68 26 4 26 C4 26.99 4 27.98 4 29 C7.3 29 10.6 29 14 29 C14 29.33 14 29.66 14 30 C10.37 30 6.74 30 3 30 C3 27.36 3 24.72 3 22 C3.66 22 4.32 22 5 22 C4.938125 20.700625 4.938125 20.700625 4.875 19.375 C5 16 5 16 6 13.125 C7.25275818 9.21013068 7.14123305 6.09575842 7 2 C4.69 1.67 2.38 1.34 0 1 C0 0.67 0 0.34 0 0 Z " fill="#FBD171" transform="translate(337,245)"/>
<path d="M0 0 C0.66 0.33 1.32 0.66 2 1 C0.99088542 2.66015625 -0.01822917 4.3203125 -1.02734375 5.98046875 C-3.38583425 10.8774149 -3.1243766 15.98635267 -3.0625 21.3125 C-3.05798828 22.05306641 -3.05347656 22.79363281 -3.04882812 23.55664062 C-3.03712175 25.37112899 -3.01918898 27.18557534 -3 29 C-3.33 28.34 -3.66 27.68 -4 27 C-4.66 27 -5.32 27 -6 27 C-6.05420701 24.43721301 -6.09377007 21.87558517 -6.125 19.3125 C-6.15013672 18.2306543 -6.15013672 18.2306543 -6.17578125 17.12695312 C-6.21391569 12.95123219 -5.8789919 9.7505862 -4 6 C-3.34 6 -2.68 6 -2 6 C-1.855625 5.38125 -1.71125 4.7625 -1.5625 4.125 C-1 2 -1 2 0 0 Z " fill="#ABABAB" transform="translate(44,235)"/>
<path d="M0 0 C3.96 0 7.92 0 12 0 C12 1.98 12 3.96 12 6 C11.34 6 10.68 6 10 6 C10 6.99 10 7.98 10 9 C9.34 9 8.68 9 8 9 C8 10.32 8 11.64 8 13 C7.34 13 6.68 13 6 13 C6.33 11.02 6.66 9.04 7 7 C7.66 7 8.32 7 9 7 C9.144375 6.38125 9.28875 5.7625 9.4375 5.125 C10 3 10 3 11 1 C7.7 1 4.4 1 1 1 C0.67 2.32 0.34 3.64 0 5 C-1.21991283 7.41043016 -2.61501686 9.67680248 -4 12 C-5 10 -5 10 -4.44140625 8.0546875 C-4.15136719 7.33539063 -3.86132812 6.61609375 -3.5625 5.875 C-3.27503906 5.15054688 -2.98757812 4.42609375 -2.69140625 3.6796875 C-2.46324219 3.12539062 -2.23507813 2.57109375 -2 2 C-1.34 2 -0.68 2 0 2 C0 1.34 0 0.68 0 0 Z " fill="#848484" transform="translate(151,237)"/>
<path d="M0 0 C0.33 0 0.66 0 1 0 C0.51172287 7.47834967 -0.33405548 14.68925318 -2 22 C-2.66 22 -3.32 22 -4 22 C-4 23.98 -4 25.96 -4 28 C-1.36 28 1.28 28 4 28 C4 28.33 4 28.66 4 29 C0.7 29 -2.6 29 -6 29 C-5.55529965 23.39677561 -4.6689483 18.68942788 -2.765625 13.41796875 C-1.38106547 9.0453037 -0.71847365 4.52215768 0 0 Z " fill="#464646" transform="translate(206,246)"/>
<path d="M0 0 C1.57776439 3.15552878 0.66118308 5.58388742 0 9 C-0.47588247 10.30074542 -0.97676789 11.59256835 -1.5 12.875 C-2.74110778 15.92135545 -3.21953946 18.53245969 -3.4375 21.8125 C-3.78324861 25.744543 -3.78324861 25.744543 -5.75 28.0625 C-8.33448192 29.13936747 -10.22594049 29.23117163 -13 29 C-13 28.34 -13 27.68 -13 27 C-10.69 26.34 -8.38 25.68 -6 25 C-5.67 21.37 -5.34 17.74 -5 14 C-4.34 14 -3.68 14 -3 14 C-3 12.02 -3 10.04 -3 8 C-2.34 8 -1.68 8 -1 8 C-1.020625 6.865625 -1.04125 5.73125 -1.0625 4.5625 C-1 1 -1 1 0 0 Z " fill="#FBD479" transform="translate(409,239)"/>
<path d="M0 0 C0.99 0 1.98 0 3 0 C3 1.65 3 3.3 3 5 C2.34 5 1.68 5 1 5 C1 5.99 1 6.98 1 8 C-1.76452033 9.38226016 -4.0461363 9.09525387 -7.125 9.0625 C-8.22070312 9.05347656 -9.31640625 9.04445312 -10.4453125 9.03515625 C-11.28835938 9.02355469 -12.13140625 9.01195312 -13 9 C-12.67 10.32 -12.34 11.64 -12 13 C-12.99 12.34 -13.98 11.68 -15 11 C-14.67 9.68 -14.34 8.36 -14 7 C-12.73542969 7.05220703 -12.73542969 7.05220703 -11.4453125 7.10546875 C-9.80175781 7.14607422 -9.80175781 7.14607422 -8.125 7.1875 C-7.03445313 7.22230469 -5.94390625 7.25710937 -4.8203125 7.29296875 C-3.42425781 7.14794922 -3.42425781 7.14794922 -2 7 C0.36980013 4.04622502 0.36980013 4.04622502 0 0 Z " fill="#FDE8B7" transform="translate(454,238)"/>
<path d="M0 0 C1 3 1 3 0 6 C-7.875 5.125 -7.875 5.125 -9 4 C-11.32817964 3.63239269 -13.6618385 3.29758419 -16 3 C-16 3.66 -16 4.32 -16 5 C-18.64 5.66 -21.28 6.32 -24 7 C-23.34 6.01 -22.68 5.02 -22 4 C-21.01 4 -20.02 4 -19 4 C-19 3.34 -19 2.68 -19 2 C-16.9377952 1.945652 -14.87517184 1.90705039 -12.8125 1.875 C-11.66394531 1.85179687 -10.51539063 1.82859375 -9.33203125 1.8046875 C-6.08259628 1.99515848 -3.91339479 2.60639873 -1 4 C-0.67 2.68 -0.34 1.36 0 0 Z " fill="#FCD989" transform="translate(277,231)"/>
<path d="M0 0 C1.30102931 4.32058242 0.72449924 7.58055464 0 12 C-0.33 12.33 -0.66 12.66 -1 13 C-1.36760731 15.32817964 -1.70241581 17.6618385 -2 20 C-2.66 20 -3.32 20 -4 20 C-4 22.31 -4 24.62 -4 27 C-4.66 27.33 -5.32 27.66 -6 28 C-5.67689659 21.93902573 -5.13952214 16.60110133 -2.765625 10.9921875 C-1.40217551 7.44443627 -0.73209544 3.72076742 0 0 Z " fill="#FBD478" transform="translate(327,239)"/>
<path d="M0 0 C1.2365332 -0.04350586 1.2365332 -0.04350586 2.49804688 -0.08789062 C8.58702073 -0.15219335 8.58702073 -0.15219335 11.12890625 2.33203125 C11.59103516 3.31236328 11.59103516 3.31236328 12.0625 4.3125 C9.5875 3.8175 9.5875 3.8175 7.0625 3.3125 C7.0625 2.6525 7.0625 1.9925 7.0625 1.3125 C-3.32683935 1.7431734 -3.32683935 1.7431734 -12.9375 5.3125 C-12.9375 4.6525 -12.9375 3.9925 -12.9375 3.3125 C-12.2775 3.3125 -11.6175 3.3125 -10.9375 3.3125 C-10.9375 2.6525 -10.9375 1.9925 -10.9375 1.3125 C-7.52737813 -0.39256094 -3.75890181 0.04387823 0 0 Z " fill="#606060" transform="translate(102.9375,236.6875)"/>
<path d="M0 0 C3.63 0 7.26 0 11 0 C10.67 2.97 10.34 5.94 10 9 C9.67 9 9.34 9 9 9 C9 6.69 9 4.38 9 2 C6.36 2 3.72 2 1 2 C0.34 3.32 -0.32 4.64 -1 6 C-0.67 4.02 -0.34 2.04 0 0 Z " fill="#FBCD63" transform="translate(265,248)"/>
<path d="M0 0 C1.23943359 -0.00386719 1.23943359 -0.00386719 2.50390625 -0.0078125 C3.35855469 -0.00007812 4.21320313 0.00765625 5.09375 0.015625 C6.37572266 0.00402344 6.37572266 0.00402344 7.68359375 -0.0078125 C8.50988281 -0.00523437 9.33617188 -0.00265625 10.1875 0 C10.93708984 0.00225586 11.68667969 0.00451172 12.45898438 0.00683594 C14.86317314 0.29828609 16.50232928 1.07306517 18.59375 2.265625 C18.59375 3.915625 18.59375 5.565625 18.59375 7.265625 C18.26375 5.945625 17.93375 4.625625 17.59375 3.265625 C13.26236427 2.20815778 9.02799698 2.08221563 4.59375 2.078125 C3.54574219 2.05975586 3.54574219 2.05975586 2.4765625 2.04101562 C-1.60549218 2.02946264 -4.73594817 2.45197976 -8.40625 4.265625 C-8.40625 3.605625 -8.40625 2.945625 -8.40625 2.265625 C-5.4774238 0.59556385 -3.36313029 0.0101212 0 0 Z " fill="#8A8A8A" transform="translate(63.40625,223.734375)"/>
<path d="M0 0 C6.6 0 13.2 0 20 0 C20 0.33 20 0.66 20 1 C14.39 1 8.78 1 3 1 C3 1.66 3 2.32 3 3 C1.35 3 -0.3 3 -2 3 C-2 3.66 -2 4.32 -2 5 C-3.65 5.33 -5.3 5.66 -7 6 C-6.67 5.34 -6.34 4.68 -6 4 C-5.01 4 -4.02 4 -3 4 C-3 3.34 -3 2.68 -3 2 C-2.01 2 -1.02 2 0 2 C0 1.34 0 0.68 0 0 Z " fill="#FCDE9A" transform="translate(254,224)"/>
<path d="M0 0 C0.33 0 0.66 0 1 0 C1.66 5.94 2.32 11.88 3 18 C1 17 1 17 -0.125 15.0625 C-1.44403074 10.4458924 -2.20795774 4.41591548 0 0 Z " fill="#5C5C5C" transform="translate(83,252)"/>
<path d="M0 0 C0.66 0.33 1.32 0.66 2 1 C1.67 2.32 1.34 3.64 1 5 C0.34 5 -0.32 5 -1 5 C-1 9.29 -1 13.58 -1 18 C-3.48233348 14.27649978 -3.54322777 11.31433067 -3 7 C-2.19002181 4.50920001 -1.17696713 2.35393425 0 0 Z " fill="#AAAAAA" transform="translate(96,247)"/>
<path d="M0 0 C0.66 0 1.32 0 2 0 C1.52797514 4.24822374 -0.96655518 6.19989709 -4 9 C-4.99 8.67 -5.98 8.34 -7 8 C-6.67 7.01 -6.34 6.02 -6 5 C-5.360625 4.855625 -4.72125 4.71125 -4.0625 4.5625 C-1.79688294 4.19895007 -1.79688294 4.19895007 -0.75 1.9375 C-0.5025 1.298125 -0.255 0.65875 0 0 Z " fill="#3C3C3C" transform="translate(52,228)"/>
<path d="M0 0 C0.5625 1.9375 0.5625 1.9375 1 4 C0 5 0 5 -3 5.125 C-6 5 -6 5 -7 4 C-8.85287502 3.92773498 -10.70833878 3.9161878 -12.5625 3.9375 C-13.57441406 3.94652344 -14.58632812 3.95554688 -15.62890625 3.96484375 C-16.41136719 3.97644531 -17.19382813 3.98804688 -18 4 C-18 3.34 -18 2.68 -18 2 C-15.72923158 1.97300275 -13.45837179 1.95360547 -11.1875 1.9375 C-9.92292969 1.92589844 -8.65835938 1.91429687 -7.35546875 1.90234375 C-4 2 -4 2 -1 3 C-0.67 2.01 -0.34 1.02 0 0 Z " fill="#696969" transform="translate(80,231)"/>
<path d="M0 0 C1.56751686 3.13503373 0.41474229 5.6360736 -0.3125 9 C-0.57675781 10.258125 -0.84101563 11.51625 -1.11328125 12.8125 C-2 16 -2 16 -4 18 C-3.65226572 11.36906706 -3.03910346 5.946072 0 0 Z " fill="#B8B8B8" transform="translate(205,248)"/>
<path d="M0 0 C0.66 0 1.32 0 2 0 C1.343621 4.48525648 0.29925791 8.66914029 -1 13 C-2.53617912 8.90352234 -1.69045256 5.21176063 -1 1 C-0.67 0.67 -0.34 0.34 0 0 Z " fill="#FBD06E" transform="translate(374,256)"/>
<path d="M0 0 C0.33 0 0.66 0 1 0 C1 1.98 1 3.96 1 6 C0.34 6 -0.32 6 -1 6 C-1 6.99 -1 7.98 -1 9 C-1.66 9 -2.32 9 -3 9 C-3 10.32 -3 11.64 -3 13 C-3.66 13 -4.32 13 -5 13 C-4.67 11.02 -4.34 9.04 -4 7 C-3.34 7 -2.68 7 -2 7 C-1.855625 6.401875 -1.71125 5.80375 -1.5625 5.1875 C-1.1127561 3.43849596 -0.57107659 1.71322977 0 0 Z " fill="#9D9D9D" transform="translate(162,237)"/>
<path d="M0 0 C0.66 0 1.32 0 2 0 C1.58846263 4.97093824 1.20399168 9.44508386 -1 14 C-1.33 14 -1.66 14 -2 14 C-2 11.69 -2 9.38 -2 7 C-1.34 7 -0.68 7 0 7 C0 4.69 0 2.38 0 0 Z " fill="#404040" transform="translate(215,246)"/>
</svg>
