<?xml version="1.0" encoding="UTF-8"?>
<svg version="1.1" xmlns="http://www.w3.org/2000/svg" width="1024" height="1024">
<path d="M0 0 C7.25733602 5.29798751 13.38054657 11.83883348 19.68002319 18.20808411 C20.96365843 19.49799902 22.24781638 20.78739396 23.5324707 22.07629395 C26.89292284 25.44997307 30.24773707 28.8291973 33.60092163 32.21009827 C38.98719788 37.6397142 44.38042471 43.06240657 49.77678299 48.48200035 C51.65931467 50.37476304 53.53840546 52.27089308 55.41717529 54.16738892 C56.56375936 55.32079706 57.71045139 56.47409791 58.85726929 57.62727356 C59.37985321 58.15659485 59.90243713 58.68591614 60.44085693 59.23127747 C63.10268206 61.94163721 63.10268206 61.94163721 66.28158569 63.96980286 C66.28158569 63.30980286 66.28158569 62.64980286 66.28158569 61.96980286 C67.56674194 60.74324036 67.56674194 60.74324036 69.34408569 59.34480286 C71.94988856 57.1990236 74.20422428 55.01096853 76.37362671 52.42781067 C80.93206684 47.14638055 85.83279476 42.21517705 90.74642944 37.26667786 C91.48306918 36.52392483 91.48306918 36.52392483 92.23459053 35.76616669 C94.82798257 33.15209043 97.42451211 30.54117673 100.02352905 27.93269348 C102.68917063 25.25594209 105.34290988 22.56769954 107.99425411 19.87679672 C110.05432735 17.7904853 112.12332688 15.71319811 114.19476509 13.63817596 C115.17684238 12.6512622 116.15557174 11.66100401 117.13068962 10.66721344 C124.46814124 3.19790129 130.86828312 -2.45843124 141.69955444 -3.12394714 C148.67897451 -2.87053401 154.6575469 -0.65487922 159.74642944 4.15730286 C166.10692952 11.66690091 168.06928714 19.31316657 167.28158569 28.96980286 C165.62125145 36.7086489 160.79555107 42.99454001 154.80502319 47.98933411 C149.11250684 52.89505334 143.88146397 58.26276624 138.59408569 63.59480286 C137.56502617 64.62889327 136.53573063 65.66274887 135.50619507 66.69636536 C133.61386175 68.59678143 131.7231736 70.49877885 129.83358765 72.40193176 C127.32139466 74.92974634 124.80272464 77.45091314 122.28158569 79.96980286 C121.51870239 80.73268616 120.75581909 81.49556946 119.96981812 82.28157043 C114.40707397 87.84431458 108.84432983 93.40705872 103.28158569 98.96980286 C107.321597 103.81896326 111.55407287 108.3793038 116.03549194 112.82136536 C116.65882919 113.44328766 117.28216644 114.06520996 117.9243927 114.70597839 C119.89526151 116.67130781 121.8695902 118.63311777 123.84408569 120.59480286 C125.17179303 121.9174853 126.49926896 123.24040007 127.82650757 124.56355286 C130.26526545 126.99419192 132.7053466 129.42348479 135.14706421 131.85115051 C135.6760733 132.37976685 136.2050824 132.90838318 136.75012207 133.45301819 C137.75847636 134.45170749 138.7762972 135.4409425 139.80401611 136.41969299 C140.99858616 137.56733753 142.14539322 138.76433521 143.28158569 139.96980286 C143.28158569 140.62980286 143.28158569 141.28980286 143.28158569 141.96980286 C143.94158569 141.96980286 144.60158569 141.96980286 145.28158569 141.96980286 C146.69174194 143.40339661 146.69174194 143.40339661 148.34408569 145.40730286 C151.06334923 148.63287278 153.90915117 151.56639963 156.96908569 154.46980286 C162.83901637 160.25973448 166.30153438 166.74939168 166.59408569 175.09480286 C166.45715851 183.43366839 162.84997397 190.28006695 157.21517944 196.27839661 C151.58032568 201.20747071 144.91857289 203.34751196 137.47689819 203.16902161 C127.21300959 202.23760111 118.93446055 195.54791196 112.28158569 187.96980286 C112.28158569 187.30980286 112.28158569 186.64980286 112.28158569 185.96980286 C111.62158569 185.96980286 110.96158569 185.96980286 110.28158569 185.96980286 C108.81745911 184.48320007 108.81745911 184.48320007 107.12313843 182.43806458 C103.54595401 178.23353186 99.75312288 174.34387635 95.81674194 170.47761536 C94.4266419 169.10013842 93.03667152 167.72253062 91.64682007 166.34480286 C89.4802945 164.2032652 87.3121794 162.06338112 85.14169312 159.92585754 C83.0290679 157.84324726 80.92255216 155.75461297 78.81674194 153.66511536 C78.16061417 153.0224472 77.50448639 152.37977905 76.82847595 151.71763611 C75.93140175 150.82563004 75.93140175 150.82563004 75.01620483 149.91560364 C74.4866066 149.39346283 73.95700836 148.87132202 73.41136169 148.33335876 C72.28158569 146.96980286 72.28158569 146.96980286 72.28158569 144.96980286 C71.41533569 144.59855286 71.41533569 144.59855286 70.53158569 144.21980286 C67.98049507 142.80253029 66.30185462 141.05797998 64.28158569 138.96980286 C63.58291382 139.69167786 62.88424194 140.41355286 62.16439819 141.15730286 C61.25432007 142.08542786 60.34424194 143.01355286 59.40658569 143.96980286 C58.04920288 145.36199036 58.04920288 145.36199036 56.66439819 146.78230286 C54.28158569 148.96980286 54.28158569 148.96980286 52.28158569 148.96980286 C52.01966431 149.55769592 51.75774292 150.14558899 51.48788452 150.751297 C50.21682761 153.08889953 48.87420613 154.6063289 46.98080444 156.46589661 C46.33305054 157.1072052 45.68529663 157.74851379 45.01791382 158.40925598 C44.34180054 159.06861145 43.66568726 159.72796692 42.96908569 160.40730286 C42.30457397 161.06279114 41.64006226 161.71827942 40.95541382 162.39363098 C39.6586572 163.67243054 38.3597309 164.9490344 37.05844116 166.22322083 C35.51233946 167.74298059 33.98181273 169.27605619 32.45736694 170.81745911 C30.18891544 173.06147487 27.77175762 174.97766531 25.28158569 176.96980286 C22.81613026 179.29828854 20.50849386 181.70921301 18.28158569 184.26667786 C10.62735424 193.03715139 3.21876686 200.61038116 -8.74575806 202.24714661 C-15.573211 202.58513933 -22.04439757 200.56061719 -27.46841431 196.40730286 C-33.23468787 191.01650758 -36.21098962 183.75031479 -36.71841431 175.96980286 C-37.21341431 176.95980286 -37.70841431 177.94980286 -38.21841431 178.96980286 C-40.93276673 183.74165374 -44.76550291 187.22244285 -48.71841431 190.96980286 C-50.04872681 192.33105286 -50.04872681 192.33105286 -51.40591431 193.71980286 C-53.71841431 195.96980286 -53.71841431 195.96980286 -56.46841431 198.15730286 C-58.79328818 199.77289363 -58.79328818 199.77289363 -59.71841431 201.96980286 C-60.37841431 201.96980286 -61.03841431 201.96980286 -61.71841431 201.96980286 C-61.94528931 202.54730286 -62.17216431 203.12480286 -62.40591431 203.71980286 C-64.04757538 206.53407898 -66.15400483 207.99718018 -68.71841431 209.96980286 C-69.04841431 210.62980286 -69.37841431 211.28980286 -69.71841431 211.96980286 C-70.37841431 211.96980286 -71.03841431 211.96980286 -71.71841431 211.96980286 C-72.04841431 212.95980286 -72.37841431 213.94980286 -72.71841431 214.96980286 C-75.27540549 217.74596471 -77.98405079 220.21720803 -80.90591431 222.59480286 C-83.83721776 224.8470262 -83.83721776 224.8470262 -85.71841431 227.96980286 C-86.37841431 227.96980286 -87.03841431 227.96980286 -87.71841431 227.96980286 C-88.04841431 228.95980286 -88.37841431 229.94980286 -88.71841431 230.96980286 C-89.37841431 231.29980286 -90.03841431 231.62980286 -90.71841431 231.96980286 C-89.53772357 236.10222043 -87.74532501 237.97727845 -84.37466431 240.57136536 C-81.93887508 242.62799871 -80.01482188 245.04413758 -78.01528931 247.51667786 C-76.76060728 249.10267896 -76.76060728 249.10267896 -74.71841431 249.96980286 C-74.71841431 250.62980286 -74.71841431 251.28980286 -74.71841431 251.96980286 C-74.05841431 251.96980286 -73.39841431 251.96980286 -72.71841431 251.96980286 C-68.97367266 255.39356664 -65.73053712 259.22955807 -62.40591431 263.05574036 C-59.28417212 266.59660534 -55.97210555 269.774521 -52.34341431 272.78230286 C-49.03206312 275.58366286 -46.21956852 278.64960362 -43.42153931 281.95808411 C-42.31159434 283.26914296 -41.17689653 284.55975915 -40.01528931 285.82527161 C-39.48419556 286.40921692 -38.95310181 286.99316223 -38.40591431 287.59480286 C-37.93540649 288.10269348 -37.46489868 288.61058411 -36.98013306 289.13386536 C-32.74223678 295.30046366 -33.00082499 302.81141192 -33.71841431 309.96980286 C-34.64991958 312.97558792 -35.94168799 315.38491284 -37.71841431 317.96980286 C-38.29591431 318.85667786 -38.87341431 319.74355286 -39.46841431 320.65730286 C-45.39765021 326.75123976 -51.46156093 329.08223877 -59.84341431 329.34480286 C-71.59118595 329.20041684 -78.69647384 322.959607 -86.71841431 314.96980286 C-88.50850948 313.03747209 -90.28557169 311.09708395 -92.05435181 309.14558411 C-99.28591818 301.24325734 -106.87136397 293.70586528 -114.46841431 286.15730286 C-115.8592764 284.77147306 -117.24990269 283.38540657 -118.64028931 281.99909973 C-121.99696362 278.65327728 -125.35677276 275.31063424 -128.71841431 271.96980286 C-129.38429565 272.65139465 -129.38429565 272.65139465 -130.06362915 273.34675598 C-132.0683629 275.39293803 -134.08074647 277.43142576 -136.09341431 279.46980286 C-136.79208618 280.18523254 -137.49075806 280.90066223 -138.21060181 281.63777161 C-138.88091431 282.31452942 -139.55122681 282.99128723 -140.24185181 283.68855286 C-140.85979614 284.31697083 -141.47774048 284.94538879 -142.1144104 285.59284973 C-143.71841431 286.96980286 -143.71841431 286.96980286 -145.71841431 286.96980286 C-146.11523155 287.85115906 -146.11523155 287.85115906 -146.52006531 288.75032043 C-147.76186357 291.05027597 -149.07511788 292.61115935 -150.89199829 294.48152161 C-151.53704819 295.14901428 -152.18209808 295.81650696 -152.84669495 296.50422668 C-153.54557327 297.21474182 -154.2444516 297.92525696 -154.96450806 298.65730286 C-155.69025528 299.3968219 -156.4160025 300.13634094 -157.16374207 300.89826965 C-158.70335839 302.461149 -160.24599619 304.02105674 -161.79141235 305.57820129 C-164.13203083 307.94564565 -166.44746743 310.33599043 -168.76333618 312.72761536 C-170.26638825 314.24733471 -171.77090132 315.76561075 -173.27700806 317.28230286 C-173.9576683 317.99281799 -174.63832855 318.70333313 -175.33961487 319.43537903 C-181.49233098 325.53394598 -188.57508091 328.86133507 -197.28091431 329.46980286 C-205.0219988 329.06748843 -212.45636691 325.59896984 -217.71841431 319.96980286 C-223.07821221 312.24998784 -223.89982177 304.93388895 -222.34732056 295.78230286 C-219.37786403 285.62471364 -208.36268457 277.5139016 -201.03579712 270.32307434 C-198.16092599 267.48924053 -195.41501507 264.66981266 -192.89028931 261.51667786 C-192.17357056 260.67620911 -191.45685181 259.83574036 -190.71841431 258.96980286 C-190.05841431 258.96980286 -189.39841431 258.96980286 -188.71841431 258.96980286 C-188.71841431 258.30980286 -188.71841431 257.64980286 -188.71841431 256.96980286 C-188.05841431 256.96980286 -187.39841431 256.96980286 -186.71841431 256.96980286 C-186.71841431 256.30980286 -186.71841431 255.64980286 -186.71841431 254.96980286 C-185.43325806 253.74324036 -185.43325806 253.74324036 -183.65591431 252.34480286 C-178.4920249 248.06764193 -174.38456991 242.96973454 -170.10757446 237.83699036 C-169.31915161 236.89081848 -168.53072876 235.94464661 -167.71841431 234.96980286 C-168.30865891 234.38399948 -168.8989035 233.79819611 -169.5070343 233.19464111 C-175.08796009 227.65390763 -180.66397363 222.10828654 -186.234622 216.55721951 C-189.09822574 213.70402136 -191.96364646 210.85270059 -194.83340454 208.00569153 C-197.60647924 205.25446063 -200.3745382 202.4982718 -203.13929176 199.73867989 C-204.19120567 198.69044111 -205.24486867 197.64395434 -206.30035973 196.59931755 C-222.49231078 180.56718205 -222.49231078 180.56718205 -223.09341431 168.15730286 C-222.87897595 160.30647617 -220.25603607 154.2041498 -214.84341431 148.53230286 C-208.559181 142.74940913 -202.40488007 140.59881666 -193.89028931 140.75886536 C-184.58887373 141.66224025 -176.71703593 146.97141096 -170.71841431 153.96980286 C-170.71841431 154.62980286 -170.71841431 155.28980286 -170.71841431 155.96980286 C-170.05841431 155.96980286 -169.39841431 155.96980286 -168.71841431 155.96980286 C-168.71841431 156.62980286 -168.71841431 157.28980286 -168.71841431 157.96980286 C-168.05841431 157.96980286 -167.39841431 157.96980286 -166.71841431 157.96980286 C-166.18216431 158.65042786 -165.64591431 159.33105286 -165.09341431 160.03230286 C-163.07776967 162.52533702 -161.20478918 164.35317161 -158.78091431 166.40730286 C-155.34766316 169.33473431 -152.60950059 172.50049932 -149.71841431 175.96980286 C-148.54693101 177.00897745 -147.35750765 178.02809651 -146.15591431 179.03230286 C-140.14025794 184.13579636 -134.99342905 190.12332818 -129.71841431 195.96980286 C-124.1826944 191.35670293 -119.0489748 186.45196314 -113.96841431 181.34480286 C-113.21431274 180.59456848 -112.46021118 179.84433411 -111.68325806 179.07136536 C-110.95751587 178.34433411 -110.23177368 177.61730286 -109.48403931 176.86824036 C-108.50612427 175.88863342 -108.50612427 175.88863342 -107.50845337 174.88923645 C-105.65954756 172.98855178 -105.65954756 172.98855178 -104.10806274 170.72615051 C-103.64947876 170.14655579 -103.19089478 169.56696106 -102.71841431 168.96980286 C-102.05841431 168.96980286 -101.39841431 168.96980286 -100.71841431 168.96980286 C-100.45028931 168.37167786 -100.18216431 167.77355286 -99.90591431 167.15730286 C-98.71924024 164.97132432 -97.62242318 163.55647692 -95.71841431 161.96980286 C-95.05841431 161.96980286 -94.39841431 161.96980286 -93.71841431 161.96980286 C-93.38841431 160.97980286 -93.05841431 159.98980286 -92.71841431 158.96980286 C-92.05841431 158.96980286 -91.39841431 158.96980286 -90.71841431 158.96980286 C-90.71841431 158.30980286 -90.71841431 157.64980286 -90.71841431 156.96980286 C-89.14419556 155.41902161 -89.14419556 155.41902161 -87.03091431 153.65730286 C-84.59695624 151.60271829 -82.39346034 149.62047735 -80.21841431 147.28230286 C-74.28070566 141.78992236 -67.74654716 139.8577824 -59.71841431 139.96980286 C-50.59335787 140.92492149 -45.00532321 145.09680128 -39.19497681 152.02058411 C-36.13305232 156.06264844 -35.40932727 160.01825997 -34.71841431 164.96980286 C-34.20278931 163.97980286 -33.68716431 162.98980286 -33.15591431 161.96980286 C-29.42012302 155.42554435 -24.01411764 150.25278375 -18.71841431 144.96980286 C-17.21329221 143.46499659 -15.70834754 141.96001284 -14.20352173 140.45491028 C5.03903198 121.21235657 5.03903198 121.21235657 24.28158569 101.96980286 C20.05017961 96.90814299 15.61898695 92.19672451 10.91439819 87.57527161 C9.52104133 86.19454108 8.12781585 84.81367797 6.73471069 83.43269348 C4.55720813 81.28016001 2.37812423 79.12927215 0.19662476 76.98078918 C-1.92259713 74.89159197 -4.03570313 72.79636424 -6.14810181 70.70027161 C-7.13699905 69.7315638 -7.13699905 69.7315638 -8.14587402 68.74328613 C-8.74715118 68.14538773 -9.34842834 67.54748932 -9.96792603 66.93147278 C-10.50054047 66.40631577 -11.03315491 65.88115875 -11.58190918 65.34008789 C-12.71841431 63.96980286 -12.71841431 63.96980286 -12.71841431 61.96980286 C-13.27528931 61.76355286 -13.83216431 61.55730286 -14.40591431 61.34480286 C-17.02116786 59.78978723 -18.54920282 57.8673237 -20.41372681 55.49324036 C-21.84784798 53.72269285 -21.84784798 53.72269285 -24.53091431 51.71980286 C-25.25278931 51.14230286 -25.97466431 50.56480286 -26.71841431 49.96980286 C-26.71841431 49.30980286 -26.71841431 48.64980286 -26.71841431 47.96980286 C-27.37841431 47.96980286 -28.03841431 47.96980286 -28.71841431 47.96980286 C-28.71841431 47.30980286 -28.71841431 46.64980286 -28.71841431 45.96980286 C-29.70841431 45.63980286 -30.69841431 45.30980286 -31.71841431 44.96980286 C-33.47232056 42.86042786 -33.47232056 42.86042786 -35.28091431 40.21980286 C-35.88032837 39.35870911 -36.47974243 38.49761536 -37.09732056 37.61042786 C-41.39559918 30.60889449 -41.5563568 24.04933256 -40.71841431 15.96980286 C-38.57541862 8.59391073 -34.13330975 3.12333228 -27.71841431 -1.03019714 C-18.53071943 -5.52767016 -8.83893854 -5.29898361 0 0 Z " fill="#9939FE" transform="translate(529.7184143066406,369.0301971435547)"/>
<path d="M0 0 C6.77255662 6.99009056 9.13778984 14.4455658 9.21582031 23.97216797 C9.0910028 30.30589553 7.28941198 34.69007396 3.82421875 39.8828125 C3.26734375 40.7903125 2.71046875 41.6978125 2.13671875 42.6328125 C-4.02449708 48.62750899 -11.53903681 52.46214915 -20.17578125 52.8828125 C-29.00340058 52.47752725 -36.79538455 49.35562263 -43.02734375 42.9921875 C-48.8800952 35.66904036 -50.89164807 28.63503215 -50.65234375 19.26953125 C-49.62870935 11.99501463 -46.23284107 5.36532255 -40.80078125 0.3828125 C-28.28126982 -9.00682107 -12.57085941 -10.14848285 0 0 Z " fill="#993AFE" transform="translate(413.17578125,416.1171875)"/>
<path d="M0 0 C6.58310791 6.02521741 9.58696679 13.16631443 10.12109375 22.02734375 C10.02143623 31.03923055 6.56270348 37.79529898 0.390625 44.29296875 C-6.10817722 50.22093023 -13.19452437 52.47323587 -21.90625 52.5 C-30.51072941 51.83477974 -37.33137908 47.46613393 -43.21875 41.3125 C-48.23606231 34.96748666 -50.66412285 27.03067329 -50.29296875 18.98046875 C-49.02659333 10.85775774 -45.3742898 3.81319885 -38.71484375 -1.125 C-26.24189537 -9.24510411 -11.9508238 -9.40392693 0 0 Z " fill="#993AFE" transform="translate(601.90625,608.5)"/>
<path d="M0 0 C0.66 0.99 1.32 1.98 2 3 C1.67 3.33 1.34 3.66 1 4 C0.92728259 6.35313555 0.91629132 8.70833668 0.9375 11.0625 C0.94652344 12.35285156 0.95554687 13.64320313 0.96484375 14.97265625 C0.97644531 15.97167969 0.98804688 16.97070312 1 18 C1.66 18.33 2.32 18.66 3 19 C3.625 22.0625 3.625 22.0625 4 25 C3.34 25.33 2.68 25.66 2 26 C-2.08967701 18.17627007 -3.38920904 11.03588275 -1 2.375 C-0.67 1.59125 -0.34 0.8075 0 0 Z " fill="#9F46F6" transform="translate(309,526)"/>
<path d="M0 0 C-0.33 0.66 -0.66 1.32 -1 2 C-6.94 2 -12.88 2 -19 2 C-13.05674546 -1.96216969 -6.73675421 -0.99294563 0 0 Z " fill="#A043F9" transform="translate(476,510)"/>
<path d="M0 0 C0.33 0.99 0.66 1.98 1 3 C-3.625 7.875 -3.625 7.875 -7 9 C-7.33 9.99 -7.66 10.98 -8 12 C-9.62332967 13.38576923 -11.28724465 14.72641268 -13 16 C-13.66 15.67 -14.32 15.34 -15 15 C-10.05 10.05 -5.1 5.1 0 0 Z " fill="#9E43F8" transform="translate(639,388)"/>
<path d="M0 0 C2.69056805 2.69056805 3.50194733 5.31188847 4 9 C3.87429279 13.02765908 3.48591711 17.00103355 3 21 C2.67 21 2.34 21 2 21 C2.04125 19.824375 2.0825 18.64875 2.125 17.4375 C2.1394613 13.33772219 1.16536527 9.93310779 0 6 C-0.125 2.5625 -0.125 2.5625 0 0 Z " fill="#9E44F8" transform="translate(608,618)"/>
<path d="M0 0 C-0.33 0.66 -0.66 1.32 -1 2 C-3.90669219 2.06759749 -6.53616817 2.10985491 -9.375 1.4375 C-13.08807966 0.81865339 -16.28363627 1.43309706 -20 2 C-13.93462394 -2.04358404 -6.92040868 -1.73010217 0 0 Z " fill="#9F48F3" transform="translate(524,366)"/>
<path d="M0 0 C-3.26093639 3.26093639 -7.53973401 2.84996047 -12 3 C-15.625 2.5625 -15.625 2.5625 -18 2 C-18 1.67 -18 1.34 -18 1 C-11.97403427 -0.0712828 -6.11090483 -0.09945415 0 0 Z " fill="#9D43F8" transform="translate(403,466)"/>
<path d="M0 0 C0.66 0.33 1.32 0.66 2 1 C0.92807816 2.3218362 -0.15802695 3.63217927 -1.25 4.9375 C-1.85328125 5.66839844 -2.4565625 6.39929688 -3.078125 7.15234375 C-5.10741134 9.10326334 -6.254407 9.61731779 -9 10 C-8.06409496 8.8944811 -7.12620142 7.79064547 -6.1875 6.6875 C-5.66542969 6.07261719 -5.14335938 5.45773437 -4.60546875 4.82421875 C-3.12827531 3.14575321 -1.59960869 1.56117966 0 0 Z " fill="#9E41F8" transform="translate(554,471)"/>
<path d="M0 0 C0.66 0 1.32 0 2 0 C1.43454163 3.95820859 0.19097652 6.6659053 -2 10 C-3.39195915 5.82412255 -1.82323219 3.86525224 0 0 Z " fill="#9D42F8" transform="translate(419,446)"/>
<path d="M0 0 C0.33 0.99 0.66 1.98 1 3 C-0.3125 4.9375 -0.3125 4.9375 -2 7 C-2.69580267 8.31836295 -3.37224433 9.64791086 -4 11 C-4.33 10.34 -4.66 9.68 -5 9 C-4.2578125 7.08984375 -4.2578125 7.08984375 -3.125 4.9375 C-2.75632812 4.22464844 -2.38765625 3.51179687 -2.0078125 2.77734375 C-1 1 -1 1 0 0 Z " fill="#9C44F8" transform="translate(558,613)"/>
<path d="M0 0 C0.33 0.66 0.66 1.32 1 2 C-2.465 4.97 -2.465 4.97 -6 8 C-6.66 7.67 -7.32 7.34 -8 7 C-5.42215154 4.35247996 -3.08351902 2.05567935 0 0 Z " fill="#9B43F8" transform="translate(455,512)"/>
<path d="M0 0 C5.66153846 1.47692308 5.66153846 1.47692308 7.375 4.125 C7.684375 5.053125 7.684375 5.053125 8 6 C4.63408134 4.55746343 2.48952921 2.66735273 0 0 Z " fill="#9A43F4" transform="translate(312,688)"/>
<path d="M0 0 C2.95409701 1.37154504 5.44008376 2.98863724 8 5 C7.67 5.99 7.34 6.98 7 8 C5.83035398 6.8572081 4.66435444 5.71068285 3.5 4.5625 C2.8503125 3.92441406 2.200625 3.28632812 1.53125 2.62890625 C0 1 0 1 0 0 Z " fill="#9B46F4" transform="translate(440,680)"/>
<path d="M0 0 C0.99 0 1.98 0 3 0 C3 0.66 3 1.32 3 2 C4.32 2.66 5.64 3.32 7 4 C6.67 4.99 6.34 5.98 6 7 C4.02 4.69 2.04 2.38 0 0 Z " fill="#9E42F9" transform="translate(409,648)"/>
<path d="M0 0 C2 1 2 1 2 1 Z " fill="#9E54E2" transform="translate(334,699)"/>
<path d="M0 0 C2 1 2 1 2 1 Z " fill="#9E52EE" transform="translate(385,408)"/>
<path d="" fill="#9D55E2" transform="translate(0,0)"/>
<path d="" fill="#9D55E7" transform="translate(0,0)"/>
<path d="" fill="#A24EF6" transform="translate(0,0)"/>
<path d="" fill="#A049F5" transform="translate(0,0)"/>
<path d="" fill="#A24BF6" transform="translate(0,0)"/>
<path d="" fill="#A550F4" transform="translate(0,0)"/>
<path d="" fill="#A051EB" transform="translate(0,0)"/>
<path d="" fill="#A752F4" transform="translate(0,0)"/>
<path d="" fill="#9D54EA" transform="translate(0,0)"/>
</svg>
